<svg xmlns="http://www.w3.org/2000/svg" viewBox="0 0 1440 800" preserveAspectRatio="xMidYMid slice">
  <defs>
    <radialGradient id="grad1-light" cx="50%" cy="50%" r="80%">
      <stop offset="0%" style="stop-color:#9FB6D3; stop-opacity:1" />
      <stop offset="100%" style="stop-color:#F0F0EE; stop-opacity:1" />
    </radialGradient>
  </defs>

  <rect width="1440" height="800" fill="url(#grad1-light)" />

  <path d="M0,192L60,213.3C120,235,240,277,360,266.7C480,256,600,192,720,154.7C840,117,960,107,1080,106.7C1200,107,1320,117,1380,122.7L1440,128L1440,800L1380,800C1320,800,1200,800,1080,800C960,800,840,800,720,800C600,800,480,800,360,800C240,800,120,800,60,800L0,800Z"
    fill="#8DAFD3" opacity="0.5" />
  
  <path d="M0,320L80,346.7C160,373,320,427,480,426.7C640,427,800,373,960,330.7C1120,288,1280,256,1360,240L1440,224L1440,800L1360,800C1280,800,1120,800,960,800C800,800,640,800,480,800C320,800,160,800,80,800L0,800Z"
    fill="#9CCBB8" opacity="0.5" />
  
  <path d="M0,448L100,464C200,480,400,512,600,522.7C800,533,1000,523,1200,501.3C1400,480,1600,448,1700,437.3L1800,427L1800,800L1700,800C1600,800,1400,800,1200,800C1000,800,800,800,600,800C400,800,200,800,100,800L0,800Z"
    fill="#C4BDD1" opacity="0.5" />
</svg>